<?xml version="1.0" encoding="iso-8859-1"?>
<!-- Generator: Adobe Illustrator 19.0.0, SVG Export Plug-In . SVG Version: 6.00 Build 0)  -->
<svg version="1.1" id="Layer_1" xmlns="http://www.w3.org/2000/svg" xmlns:xlink="http://www.w3.org/1999/xlink" x="0px" y="0px"
	 viewBox="0 0 511.857 511.857" style="enable-background:new 0 0 511.857 511.857;" xml:space="preserve">
<g>
	<path style="fill:#DBB38D;" d="M306.418,466.595c-17.363,11.776-32.669,27.298-55.17,27.298s-37.807-15.522-55.17-27.298
		c-8.461-5.74-17.058-11.345-25.429-17.246v62.509h161.684v-62.841C323.817,455.052,315.041,460.747,306.418,466.595"/>
	<path style="fill:#197780;" d="M98.791,323.227C68.476,289.92,71.844,215.437,71.844,215.437
		c0-144.42,81.219-183.709,117.544-194.057c11.686-3.332,22.977-7.833,34.196-12.486c32.256-13.384,105.104-26.723,171.628,80.788
		c0,0,44.912,61.754,44.912,152.702v152.702c0,0-114.149-143.719-170.667-143.719c0,0-3.18,23.768,17.965,44.912
		c0,0-84.211-4.491-125.754-62.877C161.669,233.402,98.791,225.92,98.791,323.227"/>
	<path style="fill:#FDD7AD;" d="M269.458,251.367c0,0-3.18,23.768,17.965,44.912c0,0-84.211-4.491-125.754-62.877
		c0,0-55.395-6.584-62.186,73.072c2.641,45.442,12.414,90.813,45.999,122.7c15.261,14.489,33.235,25.645,50.598,37.421
		c17.363,11.767,32.669,27.298,55.17,27.298s37.807-15.531,55.17-27.298c17.354-11.776,35.328-22.932,50.589-37.421
		c23.588-22.393,35.418-51.451,41.31-82.504C359.938,304.939,303.969,251.367,269.458,251.367"/>
</g>
<g>
</g>
<g>
</g>
<g>
</g>
<g>
</g>
<g>
</g>
<g>
</g>
<g>
</g>
<g>
</g>
<g>
</g>
<g>
</g>
<g>
</g>
<g>
</g>
<g>
</g>
<g>
</g>
<g>
</g>
</svg>
